#!OML:ASF E:\Steps\Project 1\Capture day 1\Session 2\Subject.ASF
:FULLY-SPECIFIED
:DEGREES
238
root 9.69202 24.8824 7.57165 -145.403 -200.153 186.669
lowerback -24.0706 -0.85805 -6.2236
upperback -2.13303 0.664177 -0.618647
thorax 11.0386 0.0550441 3.10219
lowerneck -0.942863 -0.382969 -4.336
upperneck 9.05721 -0.891359 7.11795
head 3.1798 -0.336921 3.11768
rclavicle 4.11484e-014 1.47101e-014
rhumerus -45.4615 16.8806 -103.063
rradius 91.6553
rwrist -14.8983
rhand -0.634335 -34.1499
rfingers 7.12502
rthumb 24.9827 -62.5365
lclavicle 4.11484e-014 1.47101e-014
lhumerus -32.0358 -48.2813 104.871
lradius 89.0907
lwrist 7.64495
lhand -27.8332 -32.0797
lfingers 7.12502
lthumb -1.22478 -2.10348
rfemur -39.2659 -0.433677 29.6861
rtibia 27.738
rfoot 26.9781 -4.07749
rtoes -27.8726
lfemur -53.0419 -16.0341 -2.36528
ltibia 27.404
lfoot 29.2692 2.9315
ltoes -47.9149
239
root 9.67129 24.9826 7.60573 -144.712 -205.258 187.312
lowerback -23.9841 -1.0532 -5.74395
upperback -2.01109 0.265869 -0.460583
thorax 11.1712 -0.116216 2.87408
lowerneck -0.976702 -0.355299 -4.35117
upperneck 9.06439 -0.845419 7.10041
head 3.18556 -0.312097 3.11631
rclavicle 4.9895e-014 9.14409e-015
rhumerus -46.0504 16.6211 -102.794
rradius 91.8541
rwrist -15.096
rhand -2.37975 -33.018
rfingers 7.12502
rthumb 23.3091 -61.6269
lclavicle 4.9895e-014 9.14409e-015
lhumerus -31.478 -48.7202 104.199
lradius 89.4439
lwrist 7.17005
lhand -27.8679 -32.056
lfingers 7.12502
lthumb -1.25834 -2.07993
rfemur -39.3864 -0.568858 29.3481
rtibia 27.3965
rfoot 28.007 -3.14867
rtoes -28.4202
lfemur -53.9108 -15.4329 -2.47355
ltibia 28.0645
lfoot 28.9069 2.61352
ltoes -47.8685
240
root 9.64876 25.0639 7.65424 -144.118 -210.275 187.839
lowerback -23.9543 -1.23928 -5.28983
upperback -1.83991 -0.126316 -0.175142
thorax 11.3859 -0.29254 2.80514
lowerneck -0.975968 -0.296956 -4.45853
upperneck 9.05657 -0.755187 7.08309
head 3.17783 -0.269331 3.13318
rclavicle -4.31363e-014 2.78299e-014
rhumerus -46.4962 16.2431 -102.378
rradius 92.0173
rwrist -14.7899
rhand -0.659807 -34.6898
rfingers 7.12502
rthumb 24.9582 -63.0799
lclavicle -4.31363e-014 2.78299e-014
lhumerus -30.9748 -49.0859 103.573
lradius 89.9127
lwrist 6.67073
lhand -27.8869 -31.9775
lfingers 7.12502
lthumb -1.27665 -2.00154
rfemur -39.4089 -0.408348 29.2348
rtibia 27.1061
rfoot 28.4602 -2.53544
rtoes -29.5753
lfemur -54.6639 -14.8082 -2.41768
ltibia 28.898
lfoot 28.3489 2.55775
ltoes -47.9219
241
root 9.62627 25.1331 7.71562 -143.637 -214.873 188.596
lowerback -23.6937 -1.43884 -5.28027
upperback -1.68881 -0.434777 0.109393
thorax 11.4464 -0.447778 3.01748
lowerneck -0.820727 -0.25004 -4.55935
upperneck 9.03488 -0.684364 7.06824
head 3.13725 -0.238319 3.14728
rclavicle 5.76476e-015 -3.4191e-014
rhumerus -46.9999 15.9386 -101.973
rradius 92.0842
rwrist -14.6318
rhand 0.93844 -34.4157
rfingers 7.12502
rthumb 26.4889 -62.5842
lclavicle 5.76476e-015 -3.4191e-014
lhumerus -30.9696 -49.4292 103.234
lradius 90.418
lwrist 6.62125
lhand -28.35 -32.252
lfingers 7.12502
lthumb -1.72392 -2.2792
rfemur -39.2188 0.0526338 28.7984
rtibia 27.0172
rfoot 28.397 -2.59423
rtoes -29.4877
lfemur -54.9315 -14.4197 -2.48201
ltibia 29.5804
lfoot 27.4384 3.20379
ltoes -47.5355
242
root 9.60754 25.1886 7.77693 -142.94 -219.036 189.803
lowerback -23.1799 -1.68265 -5.62314
upperback -1.63558 -0.71121 0.256781
thorax 11.259 -0.593448 3.29013
lowerneck -0.59499 -0.219107 -4.57851
upperneck 9.03196 -0.640021 7.04315
head 3.09045 -0.218726 3.14111
rclavicle -5.9039e-014 1.59028e-014
rhumerus -47.8161 16.2582 -102.114
rradius 92.1287
rwrist -16.1574
rhand -2.55624 -33.2845
rfingers 7.12502
rthumb 23.1398 -61.9148
lclavicle -5.9039e-014 1.59028e-014
lhumerus -31.034 -49.7062 102.826
lradius 90.8489
lwrist 7.08573
lhand -29.0497 -32.4953
lfingers 7.12502
lthumb -2.39975 -2.52907
rfemur -39.1335 0.516644 27.9976
rtibia 27.2839
rfoot 28.1299 -2.23507
rtoes -29.3031
lfemur -55.0191 -14.2773 -2.78235
ltibia 30.2174
lfoot 26.254 4.31132
ltoes -46.3506
243
root 9.59422 25.2297 7.83354 -142.045 -222.968 191.313
lowerback -22.4812 -1.85744 -5.93943
upperback -1.60689 -0.905621 0.270036
thorax 10.9345 -0.691202 3.42655
lowerneck -0.331683 -0.232465 -4.51752
upperneck 9.02915 -0.659163 7.03073
head 3.04028 -0.227697 3.12218
rclavicle -6.77856e-014 8.34896e-014
rhumerus -48.5438 16.6039 -102.399
rradius 92.0975
rwrist -17.7241
rhand -0.755798 -37.3403
rfingers 7.12502
rthumb 24.8663 -65.7431
lclavicle -6.77856e-014 8.34896e-014
lhumerus -31.1334 -49.8671 102.325
lradius 91.4833
lwrist 7.7055
lhand -29.284 -32.36
lfingers 7.12502
lthumb -2.62595 -2.39644
rfemur -39.1663 0.883072 27.1494
rtibia 27.7616
rfoot 27.7881 -1.07345
rtoes -29.7953
lfemur -55.1225 -14.2483 -3.22786
ltibia 31.1554
lfoot 24.967 5.10301
ltoes -44.9361
244
root 9.57616 25.2587 7.89431 -141.091 -226.778 192.883
lowerback -21.7195 -1.96485 -6.23968
upperback -1.54755 -1.02769 0.301333
thorax 10.6032 -0.755643 3.59948
lowerneck -0.0925342 -0.283874 -4.46261
upperneck 9.01125 -0.729081 7.04328
head 2.99354 -0.260875 3.11201
rclavicle -1.17283e-014 -6.36111e-015
rhumerus -48.8091 16.4808 -102.166
rradius 91.8863
rwrist -16.9989
rhand 2.20557 -37.066
rfingers 7.12502
rthumb 27.7012 -65.0457
lclavicle -1.17283e-014 -6.36111e-015
lhumerus -31.533 -50.0181 101.833
lradius 92.3717
lwrist 8.45376
lhand -29.2994 -32.1455
lfingers 7.12502
lthumb -2.64081 -2.18215
rfemur -39.1238 1.55638 26.3781
rtibia 28.2495
rfoot 27.2127 -0.282652
rtoes -30.0475
lfemur -55.1099 -14.1616 -3.55291
ltibia 32.0394
lfoot 23.9804 5.59234
ltoes -43.4192
245
root 9.5567 25.2781 7.9637 -140.133 -230.409 194.396
lowerback -20.9405 -2.04056 -6.47622
upperback -1.49649 -1.13436 0.367237
thorax 10.2506 -0.809913 3.78105
lowerneck 0.0890398 -0.312544 -4.35761
upperneck 8.98806 -0.766227 7.03233
head 2.95265 -0.276128 3.08549
rclavicle -8.98507e-014 -6.36111e-015
rhumerus -48.9943 16.5696 -102.065
rradius 91.7052
rwrist -16.2051
rhand 4.54707 -36.5344
rfingers 7.12502
rthumb 29.9379 -64.1329
lclavicle -8.98507e-014 -6.36111e-015
lhumerus -32.4221 -50.063 101.192
lradius 93.5978
lwrist 9.2707
lhand -29.1593 -31.8825
lfingers 7.12502
lthumb -2.50557 -1.91749
rfemur -39.0685 2.35698 25.8661
rtibia 28.8551
rfoot 26.2463 0.421314
rtoes -32.4711
lfemur -54.9255 -13.8475 -3.74328
ltibia 32.7388
lfoot 23.2205 5.59924
ltoes -44.0422
246
root 9.5455 25.2899 8.03243 -138.955 -233.912 196.087
lowerback -20.128 -2.14275 -6.50322
upperback -1.46789 -1.33046 0.424324
thorax 9.85944 -0.895259 3.80911
lowerneck 0.150615 -0.284273 -4.24232
upperneck 8.97439 -0.722604 6.98289
head 2.93142 -0.250716 3.04671
rclavicle 3.06128e-014 2.8625e-014
rhumerus -49.2845 17.344 -102.532
rradius 91.5891
rwrist -16.8045
rhand 2.77371 -36.8069
rfingers 7.12502
rthumb 28.2443 -64.6981
lclavicle 3.06128e-014 2.8625e-014
lhumerus -33.21 -49.9474 100.215
lradius 94.778
lwrist 9.72149
lhand -28.999 -31.8364
lfingers 7.12502
lthumb -2.35071 -1.86961
rfemur -39.0793 3.10897 25.3238
rtibia 29.4471
rfoot 25.1801 0.545839
rtoes -34.3826
lfemur -54.8186 -13.5111 -3.88777
ltibia 33.5764
lfoot 22.4543 5.6378
ltoes -45.2237
247
root 9.53658 25.2947 8.10009 -137.188 -237.477 198.247
lowerback -19.4093 -2.32615 -6.44103
upperback -1.47239 -1.65402 0.549966
thorax 9.49735 -1.03962 3.82918
lowerneck 0.0576441 -0.242697 -4.28922
upperneck 8.97304 -0.657029 6.95784
head 2.94427 -0.217306 3.04925
rclavicle 2.18663e-014 -7.95139e-015
rhumerus -49.3848 18.2962 -102.874
rradius 91.3655
rwrist -16.9131
rhand 1.29123 -36.9534
rfingers 7.12502
rthumb 26.8266 -65.0705
lclavicle 2.18663e-014 -7.95139e-015
lhumerus -33.6807 -49.8446 99.0814
lradius 95.7929
lwrist 9.73205
lhand -29.2981 -31.9949
lfingers 7.12502
lthumb -2.63964 -2.03147
rfemur -39.1742 3.71814 24.634
rtibia 29.8037
rfoot 24.5354 -0.0647432
rtoes -32.6492
lfemur -55.0502 -13.3217 -3.91172
ltibia 34.6031
lfoot 21.8555 5.96727
ltoes -45.1098
248
root 9.52841 25.2905 8.17015 -134.781 -241.1 201.007
lowerback -18.8293 -2.49086 -6.37818
upperback -1.43754 -1.94462 0.716837
thorax 9.25347 -1.17465 3.9054
lowerneck -0.0634816 -0.204696 -4.48125
upperneck 8.97389 -0.595034 6.97799
head 2.96578 -0.188857 3.09536
rclavicle 8.74653e-015 -1.66979e-014
rhumerus -49.143 19.0348 -102.772
rradius 91.1327
rwrist -16.2056
rhand 2.32974 -36.3237
rfingers 7.12502
rthumb 27.8199 -64.2843
lclavicle 8.74653e-015 -1.66979e-014
lhumerus -34.1252 -49.9523 97.8575
lradius 96.9032
lwrist 9.51202
lhand -29.5161 -32.1336
lfingers 7.12502
lthumb -2.85013 -2.17285
rfemur -39.2096 4.03175 23.987
rtibia 29.8808
rfoot 24.5771 -0.609565
rtoes -27.6445
lfemur -55.4268 -13.1398 -3.91699
ltibia 35.7264
lfoot 21.4163 6.23304
ltoes -45.1323
249
root 9.53661 25.268 8.24771 -132.165 -244.33 203.933
lowerback -18.6552 -2.44765 -6.28654
upperback -1.31687 -1.92299 0.782774
thorax 9.28749 -1.16654 3.93313
lowerneck 0.00748936 -0.172506 -4.64945
upperneck 8.97009 -0.544958 7.00558
head 2.95026 -0.167475 3.13747
rclavicle -5.04913e-014 -4.29375e-014
rhumerus -48.8074 19.6107 -102.608
rradius 90.9997
rwrist -15.8514
rhand 3.05003 -35.7842
rfingers 7.12502
rthumb 28.5084 -63.6315
lclavicle -5.04913e-014 -4.29375e-014
lhumerus -34.4691 -50.4213 96.443
lradius 97.7301
lwrist 9.14438
lhand -29.0215 -32.7925
lfingers 7.12502
lthumb -2.37251 -2.82594
rfemur -39.1142 4.62156 23.4374
rtibia 29.7859
rfoot 23.8095 -1.32889
rtoes -28.4709
lfemur -55.4805 -12.4904 -4.03833
ltibia 36.6701
lfoot 21.1182 6.50918
ltoes -45.228
250
root 9.52955 25.2318 8.3178 -126.995 -247.667 208.921
lowerback -18.8496 -2.5522 -6.44459
upperback -1.42871 -2.00053 0.717643
thorax 9.28406 -1.20106 3.92904
lowerneck 0.297172 -0.190921 -4.562
upperneck 8.95714 -0.569277 6.99389
head 2.89224 -0.177554 3.11337
rclavicle 1.59028e-015 -6.83819e-014
rhumerus -48.5453 19.7067 -102.545
rradius 90.8474
rwrist -15.549
rhand 2.46807 -35.9649
rfingers 7.12502
rthumb 27.9522 -63.904
lclavicle 1.59028e-015 -6.83819e-014
lhumerus -34.5672 -51.3571 94.8302
lradius 98.2134
lwrist 8.80017
lhand -28.4246 -33.2746
lfingers 7.12502
lthumb -1.79603 -3.30236
rfemur -39.8087 4.87067 22.3684
rtibia 29.7559
rfoot 23.265 -2.1365
rtoes -28.5455
lfemur -56.6361 -12.1633 -4.08679
ltibia 37.9347
lfoot 20.9176 6.68707
ltoes -45.8026
251
root 9.53595 25.1892 8.40186 -121.926 -250.05 214.187
lowerback -18.8599 -2.42068 -6.91434
upperback -1.32219 -1.7032 0.553046
thorax 9.38203 -1.07874 4.09631
lowerneck 0.403388 -0.208504 -4.4288
upperneck 8.94855 -0.587654 6.95908
head 2.86878 -0.181473 3.07458
rclavicle -9.93923e-015 1.59028e-014
rhumerus -48.066 19.5942 -102.375
rradius 90.6685
rwrist -14.7862
rhand 3.19124 -35.8976
rfingers 7.12502
rthumb 28.6433 -63.7222
lclavicle -9.93923e-015 1.59028e-014
lhumerus -34.2959 -52.264 92.8265
lradius 98.7465
lwrist 8.66347
lhand -28.6889 -32.7708
lfingers 7.12502
lthumb -2.05124 -2.80092
rfemur -39.9175 5.66004 21.143
rtibia 29.6569
rfoot 22.9482 -2.12069
rtoes -28.6832
lfemur -56.6725 -11.3124 -4.57875
ltibia 38.6649
lfoot 20.703 7.00932
ltoes -46.2538
252
root 9.54505 25.1328 8.49215 -115.894 -252.327 220.331
lowerback -18.8999 -2.38078 -7.23311
upperback -1.22031 -1.56758 0.495439
thorax 9.50848 -1.03192 4.25062
lowerneck 0.330103 -0.165297 -4.5134
upperneck 8.9341 -0.519873 6.95257
head 2.87393 -0.147899 3.09029
rclavicle -4.45278e-014 1.27222e-014
rhumerus -47.4013 19.8728 -102.058
rradius 90.5196
rwrist -14.1899
rhand 5.70761 -35.192
rfingers 7.12502
rthumb 31.0447 -62.5849
lclavicle -4.45278e-014 1.27222e-014
lhumerus -34.0639 -52.7316 90.7034
lradius 99.2676
lwrist 8.68759
lhand -29.3559 -32.3108
lfingers 7.12502
lthumb -2.69539 -2.34811
rfemur -40.2028 6.32618 20.1145
rtibia 29.7222
rfoot 22.5173 -1.85016
rtoes -28.8876
lfemur -56.8462 -10.2337 -4.85336
ltibia 39.495
lfoot 20.3695 7.51591
ltoes -45.8118
